<?xml version="1.0" encoding="UTF-8"?>
<!DOCTYPE svg PUBLIC "-//W3C//DTD SVG 1.1//EN" "http://www.w3.org/Graphics/SVG/1.1/DTD/svg11.dtd">
<svg xmlns="http://www.w3.org/2000/svg" version="1.1" width="339px" height="278px" style="shape-rendering:geometricPrecision; text-rendering:geometricPrecision; image-rendering:optimizeQuality; fill-rule:evenodd; clip-rule:evenodd" xmlns:xlink="http://www.w3.org/1999/xlink">
<g><path style="opacity:0.985" fill="#13a851" d="M 134.5,-0.5 C 138.5,-0.5 142.5,-0.5 146.5,-0.5C 154.02,3.01377 160.02,8.3471 164.5,15.5C 166.993,13.4197 169.659,11.5864 172.5,10C 178.214,9.21378 180.881,11.7138 180.5,17.5C 180.614,20.3775 179.948,23.0442 178.5,25.5C 178.833,25.8333 179.167,26.1667 179.5,26.5C 184.5,23.6667 189.5,20.8333 194.5,18C 200.667,16.1667 202.833,18.3333 201,24.5C 193.255,33.0205 191.922,42.3539 197,52.5C 203.772,58.4919 210.939,58.9919 218.5,54C 223.555,47.0111 223.722,39.8444 219,32.5C 216.592,29.3799 213.426,28.0466 209.5,28.5C 209.5,31.1667 209.5,33.8333 209.5,36.5C 207.708,36.634 206.042,36.3007 204.5,35.5C 205.183,33.8235 206.517,33.1568 208.5,33.5C 208.785,31.712 208.452,30.0453 207.5,28.5C 204.264,27.3778 203.931,25.8778 206.5,24C 218.595,21.3943 226.095,26.2277 229,38.5C 231.041,60.4721 221.541,68.6388 200.5,63C 193.167,59.3333 185.833,55.6667 178.5,52C 175.044,50.877 172.21,51.7104 170,54.5C 168.094,58.9548 167.261,63.6214 167.5,68.5C 168.083,83.2467 169.416,97.9134 171.5,112.5C 169.213,112.724 167.047,113.391 165,114.5C 161.585,113.728 159.085,111.895 157.5,109C 160.113,92.2563 161.279,75.4229 161,58.5C 160.443,56.3853 159.609,54.3853 158.5,52.5C 157.277,51.3861 155.944,51.2195 154.5,52C 151.145,56.3518 147.479,60.3518 143.5,64C 141.421,64.8077 139.421,64.641 137.5,63.5C 136.826,61.4835 135.659,59.8168 134,58.5C 128.992,63.0937 123.159,64.9271 116.5,64C 115.584,63.6258 114.75,63.1258 114,62.5C 110.667,57.1667 110.667,51.8333 114,46.5C 117,44.5 120,42.5 123,40.5C 121.603,34.3896 124.103,31.3896 130.5,31.5C 129.736,28.213 127.903,25.5463 125,23.5C 121.811,12.8905 124.978,4.89047 134.5,-0.5 Z"/></g>
<g><path style="opacity:0.958" fill="#ba4430" d="M 204.5,35.5 C 206.042,36.3007 207.708,36.634 209.5,36.5C 216.503,35.6727 219.003,38.6727 217,45.5C 212.016,50.4592 206.682,50.7925 201,46.5C 198.726,41.7199 199.892,38.0532 204.5,35.5 Z"/></g>
<g><path style="opacity:0.945" fill="#14a951" d="M 147.5,112.5 C 153.728,111.683 159.395,113.016 164.5,116.5C 174.947,111.163 183.947,112.996 191.5,122C 172.833,122.667 154.167,122.667 135.5,122C 138.618,117.621 142.618,114.454 147.5,112.5 Z"/></g>
<g><path style="opacity:0.981" fill="#13a851" d="M -0.5,136.5 C 8.83928,136.334 18.1726,136.5 27.5,137C 39.0972,139.598 43.9305,146.765 42,158.5C 40.5,165.333 36.3333,169.5 29.5,171C 23.5092,171.499 17.5092,171.666 11.5,171.5C 11.5,177.167 11.5,182.833 11.5,188.5C 7.5,188.5 3.5,188.5 -0.5,188.5C -0.5,171.167 -0.5,153.833 -0.5,136.5 Z M 11.5,146.5 C 15.8461,146.334 20.1794,146.501 24.5,147C 29.6894,149.913 30.8561,154.08 28,159.5C 22.8267,162.038 17.3267,163.038 11.5,162.5C 11.5,157.167 11.5,151.833 11.5,146.5 Z"/></g>
<g><path style="opacity:0.978" fill="#14a851" d="M 45.5,136.5 C 55.5056,136.334 65.5056,136.5 75.5,137C 89.16,140.82 93.3267,149.32 88,162.5C 85.2282,166.601 81.3949,169.101 76.5,170C 81.7382,175.815 86.7382,181.815 91.5,188C 86.467,188.829 81.467,188.662 76.5,187.5C 71.9761,182.144 67.6428,176.644 63.5,171C 61.8659,170.506 60.1992,170.34 58.5,170.5C 58.5,176.5 58.5,182.5 58.5,188.5C 54.1667,188.5 49.8333,188.5 45.5,188.5C 45.5,171.167 45.5,153.833 45.5,136.5 Z M 58.5,146.5 C 63.1785,146.334 67.8452,146.501 72.5,147C 78.3525,150.451 79.0192,154.785 74.5,160C 69.2636,161.339 63.9302,161.839 58.5,161.5C 58.5,156.5 58.5,151.5 58.5,146.5 Z"/></g>
<g><path style="opacity:0.982" fill="#13a851" d="M 94.5,136.5 C 98.5,136.5 102.5,136.5 106.5,136.5C 106.5,153.833 106.5,171.167 106.5,188.5C 102.5,188.5 98.5,188.5 94.5,188.5C 94.5,171.167 94.5,153.833 94.5,136.5 Z"/></g>
<g><path style="opacity:0.968" fill="#13a951" d="M 112.5,136.5 C 118.537,136.171 124.537,136.504 130.5,137.5C 134.45,149.023 138.784,160.357 143.5,171.5C 147.831,160.176 152.164,148.843 156.5,137.5C 162.463,136.504 168.463,136.171 174.5,136.5C 174.5,153.833 174.5,171.167 174.5,188.5C 170.167,188.5 165.833,188.5 161.5,188.5C 161.667,177.495 161.5,166.495 161,155.5C 157,166.167 153,176.833 149,187.5C 145.27,188.46 141.437,188.793 137.5,188.5C 134.171,177.347 130.338,166.347 126,155.5C 125.5,166.495 125.333,177.495 125.5,188.5C 121.167,188.5 116.833,188.5 112.5,188.5C 112.5,171.167 112.5,153.833 112.5,136.5 Z"/></g>
<g><path style="opacity:0.968" fill="#13a952" d="M 180.5,136.5 C 193.167,136.5 205.833,136.5 218.5,136.5C 218.5,140.167 218.5,143.833 218.5,147.5C 209.833,147.5 201.167,147.5 192.5,147.5C 192.5,150.833 192.5,154.167 192.5,157.5C 200.5,157.5 208.5,157.5 216.5,157.5C 216.5,160.5 216.5,163.5 216.5,166.5C 208.5,166.5 200.5,166.5 192.5,166.5C 192.5,170.5 192.5,174.5 192.5,178.5C 201.5,178.5 210.5,178.5 219.5,178.5C 219.5,181.833 219.5,185.167 219.5,188.5C 206.5,188.5 193.5,188.5 180.5,188.5C 180.5,171.167 180.5,153.833 180.5,136.5 Z"/></g>
<g><path style="opacity:0.951" fill="#14a852" d="M 222.5,136.5 C 226.833,136.5 231.167,136.5 235.5,136.5C 235.5,153.833 235.5,171.167 235.5,188.5C 231.167,188.5 226.833,188.5 222.5,188.5C 222.5,171.167 222.5,153.833 222.5,136.5 Z"/></g>
<g><path style="opacity:0.979" fill="#13a851" d="M 338.5,186.5 C 338.5,187.167 338.5,187.833 338.5,188.5C 334.116,188.826 329.783,188.492 325.5,187.5C 324.593,184.943 323.593,182.443 322.5,180C 315.833,179.333 309.167,179.333 302.5,180C 301.407,182.443 300.407,184.943 299.5,187.5C 290.853,188.665 282.186,188.832 273.5,188C 268.456,182.624 263.789,176.958 259.5,171C 257.866,170.506 256.199,170.34 254.5,170.5C 254.5,176.5 254.5,182.5 254.5,188.5C 250.167,188.5 245.833,188.5 241.5,188.5C 241.5,171.167 241.5,153.833 241.5,136.5C 251.506,136.334 261.506,136.5 271.5,137C 284.16,140.154 288.66,147.988 285,160.5C 282.447,165.703 278.28,168.87 272.5,170C 277.333,175.5 282.167,181 287,186.5C 292.401,170.13 297.901,153.796 303.5,137.5C 309.5,136.167 315.5,136.167 321.5,137.5C 327.001,154.006 332.667,170.34 338.5,186.5 Z M 254.5,146.5 C 259.179,146.334 263.845,146.501 268.5,147C 274.29,150.532 274.957,154.865 270.5,160C 265.264,161.339 259.93,161.839 254.5,161.5C 254.5,156.5 254.5,151.5 254.5,146.5 Z M 311.5,149.5 C 312.497,149.47 313.164,149.97 313.5,151C 315.401,156.871 317.401,162.704 319.5,168.5C 314.833,169.833 310.167,169.833 305.5,168.5C 307.908,162.276 309.908,155.943 311.5,149.5 Z"/></g>
<g><path style="opacity:0.925" fill="#13a851" d="M 94.5,201.5 C 101.906,201.152 109.239,201.652 116.5,203C 118.893,205.251 119.893,208.085 119.5,211.5C 119.167,213.167 118.833,214.833 118.5,216.5C 112.892,203.696 103.892,200.53 91.5,207C 84.9727,217.505 83.8061,228.672 88,240.5C 93.5513,250.718 101.551,253.384 112,248.5C 112.829,243.467 112.662,238.467 111.5,233.5C 109.775,232.985 108.108,232.318 106.5,231.5C 112.5,230.167 118.5,230.167 124.5,231.5C 123.264,232.357 121.931,233.023 120.5,233.5C 119.421,237.644 119.421,241.81 120.5,246C 120.561,248.806 119.228,250.473 116.5,251C 106.19,254.79 96.1902,254.123 86.5,249C 77.3461,239.923 74.5128,229.09 78,216.5C 81.1981,208.795 86.6981,203.795 94.5,201.5 Z"/></g>
<g><path style="opacity:0.917" fill="#14a852" d="M 52.5,203.5 C 58.6529,202.347 64.9863,202.18 71.5,203C 69.7505,204.319 67.7505,204.819 65.5,204.5C 65.1673,219.515 65.5007,234.515 66.5,249.5C 68.2251,250.015 69.8917,250.682 71.5,251.5C 65.1667,252.833 58.8333,252.833 52.5,251.5C 54.1083,250.682 55.7749,250.015 57.5,249.5C 58.4993,234.515 58.8327,219.515 58.5,204.5C 56.4352,204.483 54.4352,204.15 52.5,203.5 Z"/></g>
<g><path style="opacity:0.952" fill="#14a851" d="M 128.5,203.5 C 137.324,202.343 146.324,202.176 155.5,203C 163.762,205.761 166.262,211.261 163,219.5C 160.811,223.022 157.978,225.855 154.5,228C 158.091,237.188 163.424,245.188 170.5,252C 162.401,253.528 156.568,250.361 153,242.5C 150.893,238.619 149.059,234.619 147.5,230.5C 145.604,229.534 143.604,229.201 141.5,229.5C 141.17,236.2 141.503,242.866 142.5,249.5C 144.535,250.041 146.535,250.708 148.5,251.5C 141.833,252.833 135.167,252.833 128.5,251.5C 130.108,250.682 131.775,250.015 133.5,249.5C 134.499,234.515 134.833,219.515 134.5,204.5C 132.435,204.483 130.435,204.15 128.5,203.5 Z M 141.5,204.5 C 154.367,203.533 158.867,209.199 155,221.5C 151.469,225.623 146.969,227.29 141.5,226.5C 141.5,219.167 141.5,211.833 141.5,204.5 Z"/></g>
<g><path style="opacity:0.907" fill="#13a852" d="M 173.5,203.5 C 184.988,202.505 196.655,202.172 208.5,202.5C 208.826,206.884 208.492,211.217 207.5,215.5C 205.681,212.543 204.347,209.376 203.5,206C 197.899,204.783 192.232,204.283 186.5,204.5C 186.5,211.167 186.5,217.833 186.5,224.5C 190.5,224.5 194.5,224.5 198.5,224.5C 198.643,221.903 199.477,219.569 201,217.5C 201.83,223.196 201.663,228.863 200.5,234.5C 199.365,232.293 198.699,229.96 198.5,227.5C 194.5,227.5 190.5,227.5 186.5,227.5C 186.5,235.167 186.5,242.833 186.5,250.5C 192.562,250.055 198.562,249.222 204.5,248C 205.757,244.476 207.09,240.976 208.5,237.5C 209.494,242.456 209.827,247.456 209.5,252.5C 197.482,252.832 185.482,252.499 173.5,251.5C 175.108,250.682 176.775,250.015 178.5,249.5C 179.499,234.515 179.833,219.515 179.5,204.5C 177.379,204.675 175.379,204.341 173.5,203.5 Z"/></g>
<g><path style="opacity:0.982" fill="#13a851" d="M 215.5,203.5 C 221.987,202.346 228.654,202.179 235.5,203C 233.655,204.128 231.655,204.628 229.5,204.5C 229.667,219.837 229.5,235.17 229,250.5C 227.161,257.671 222.828,262.671 216,265.5C 217.314,261.858 218.981,258.191 221,254.5C 222.391,237.872 222.891,221.205 222.5,204.5C 220.097,204.552 217.764,204.219 215.5,203.5 Z"/></g>
<g><path style="opacity:0.889" fill="#13a851" d="M 257.5,201.5 C 259.467,201.261 261.301,201.594 263,202.5C 268.639,217.613 274.139,232.779 279.5,248C 281.1,249.748 283.1,250.915 285.5,251.5C 277.5,252.833 269.5,252.833 261.5,251.5C 264.972,250.865 268.305,249.865 271.5,248.5C 269.637,244.245 267.97,239.912 266.5,235.5C 260.537,234.504 254.537,234.171 248.5,234.5C 247.135,239.427 245.469,244.26 243.5,249C 246.864,249.727 250.197,250.56 253.5,251.5C 247.167,252.833 240.833,252.833 234.5,251.5C 238.264,251.04 240.764,249.04 242,245.5C 247.075,230.772 252.242,216.105 257.5,201.5 Z M 256.5,211.5 C 257.497,211.47 258.164,211.97 258.5,213C 260.611,219.165 262.611,225.332 264.5,231.5C 259.833,231.5 255.167,231.5 250.5,231.5C 252.5,224.833 254.5,218.167 256.5,211.5 Z"/></g>
<g><path style="opacity:0.731" fill="#14a751" d="M 293.5,223.5 C 304.187,223.168 314.854,223.501 325.5,224.5C 320.167,224.833 314.833,225.167 309.5,225.5C 303.789,225.495 298.456,224.828 293.5,223.5 Z"/></g>
<g><path style="opacity:0.433" fill="#13a752" d="M 4.5,225.5 C 15.1874,225.168 25.8541,225.501 36.5,226.5C 31.1667,226.833 25.8333,227.167 20.5,227.5C 14.7891,227.495 9.45576,226.828 4.5,225.5 Z"/></g>
<g><path style="opacity:0.435" fill="#14a851" d="M 219.5,265.5 C 221.665,265.116 223.332,265.783 224.5,267.5C 222.997,268.052 221.331,268.052 219.5,267.5C 219.116,269.665 219.783,271.332 221.5,272.5C 222.506,272.062 222.506,271.396 221.5,270.5C 222.325,269.614 223.325,269.281 224.5,269.5C 224.833,273.323 223.166,274.823 219.5,274C 216.899,271.17 216.899,268.337 219.5,265.5 Z"/></g>
<g><path style="opacity:0.732" fill="#13a851" d="M 168.5,265.5 C 169.477,268.287 169.81,271.287 169.5,274.5C 166.429,275.075 164.429,273.909 163.5,271C 164.776,268.721 166.443,266.888 168.5,265.5 Z M 165.5,269.5 C 168.293,269.74 168.793,270.74 167,272.5C 165.961,271.756 165.461,270.756 165.5,269.5 Z"/></g>
<g><path style="opacity:0.749" fill="#13a852" d="M 149.5,267.5 C 154.213,267.468 155.713,269.801 154,274.5C 152.883,273.051 152.216,271.384 152,269.5C 150.883,270.949 150.216,272.616 150,274.5C 149.503,272.19 149.337,269.857 149.5,267.5 Z"/></g>
<g><path style="opacity:0.529" fill="#13a851" d="M 171.5,267.5 C 175.677,266.842 177.177,268.508 176,272.5C 173.442,275.15 171.608,274.65 170.5,271C 170.648,269.744 170.982,268.577 171.5,267.5 Z"/></g>
<g><path style="opacity:0.498" fill="#13a851" d="M 130.5,269.5 C 129.167,270.5 129.167,271.5 130.5,272.5C 130.483,274.028 129.816,274.528 128.5,274C 127.773,272.601 127.273,271.101 127,269.5C 126.798,271.256 126.298,272.922 125.5,274.5C 124.808,273.975 124.308,273.308 124,272.5C 122.54,274.422 120.873,275.089 119,274.5C 118.179,271.446 118.345,268.446 119.5,265.5C 121.149,266.706 122.649,268.039 124,269.5C 124.219,268.062 124.719,266.729 125.5,265.5C 126.192,266.025 126.692,266.692 127,267.5C 129.149,266.16 130.316,266.827 130.5,269.5 Z M 120.5,269.5 C 122.465,269.948 122.798,270.948 121.5,272.5C 120.614,271.675 120.281,270.675 120.5,269.5 Z"/></g>
<g><path style="opacity:0.358" fill="#14a751" d="M 130.5,272.5 C 130.5,271.5 130.5,270.5 130.5,269.5C 134.307,269.319 137.974,267.986 141.5,265.5C 142.655,268.446 142.821,271.446 142,274.5C 141.02,272.941 140.187,271.274 139.5,269.5C 138.702,271.078 138.202,272.744 138,274.5C 136.75,273.427 135.416,273.427 134,274.5C 132.697,274.022 131.531,273.355 130.5,272.5 Z"/></g>
<g><path style="opacity:0.582" fill="#13a851" d="M 143.5,267.5 C 148.213,267.468 149.713,269.801 148,274.5C 146.732,274.384 145.398,274.051 144,273.5C 143.342,271.892 143.842,270.725 145.5,270C 144.244,269.583 143.577,268.75 143.5,267.5 Z"/></g>
<g><path style="opacity:0.582" fill="#13a851" d="M 155.5,267.5 C 160.213,267.468 161.713,269.801 160,274.5C 158.732,274.384 157.398,274.051 156,273.5C 155.342,271.892 155.842,270.725 157.5,270C 156.244,269.583 155.577,268.75 155.5,267.5 Z"/></g>
<g><path style="opacity:0.729" fill="#13a851" d="M 245.5,265.5 C 246.931,265.881 247.764,266.881 248,268.5C 253.256,266.906 254.756,268.739 252.5,274C 250.633,274.711 249.133,274.211 248,272.5C 242.934,275.894 240.934,274.56 242,268.5C 243.729,268.026 244.895,267.026 245.5,265.5 Z M 243.5,269.5 C 245.973,269.947 246.14,270.947 244,272.5C 242.272,271.648 242.105,270.648 243.5,269.5 Z"/></g>
<g><path style="opacity:0.28" fill="#13a851" d="M 96.5,265.5 C 100.225,265.729 103.725,266.729 107,268.5C 110.508,268.341 114.008,268.341 117.5,268.5C 116.975,269.192 116.308,269.692 115.5,270C 118.132,271.778 117.965,273.278 115,274.5C 112.514,274.261 110.014,273.927 107.5,273.5C 105.73,268.326 104.563,268.659 104,274.5C 102.956,273.377 102.29,272.044 102,270.5C 100.989,271.337 99.8221,271.67 98.5,271.5C 98.719,272.675 98.3857,273.675 97.5,274.5C 96.5159,271.572 96.1826,268.572 96.5,265.5 Z M 98.5,267.5 C 100.337,267.639 100.67,268.306 99.5,269.5C 98.7025,269.043 98.3691,268.376 98.5,267.5 Z"/></g>
<g><path style="opacity:0.498" fill="#14a751" d="M 193.5,267.5 C 200.342,265.743 202.675,268.076 200.5,274.5C 199.702,272.922 199.202,271.256 199,269.5C 198.115,276.078 196.948,276.078 195.5,269.5C 194.702,271.078 194.202,272.744 194,274.5C 193.503,272.19 193.337,269.857 193.5,267.5 Z"/></g>
<g><path style="opacity:0.393" fill="#14a851" d="M 235.5,267.5 C 240.213,267.468 241.713,269.801 240,274.5C 238.883,273.051 238.216,271.384 238,269.5C 237.784,271.384 237.117,273.051 236,274.5C 235.503,272.19 235.337,269.857 235.5,267.5 Z"/></g>
<g><path style="opacity:0.686" fill="#13a851" d="M 181.5,265.5 C 183.665,265.116 185.332,265.783 186.5,267.5C 184.997,268.052 183.331,268.052 181.5,267.5C 181.038,272.244 182.538,273.244 186,270.5C 186.914,271.654 187.747,271.487 188.5,270C 188.043,269.586 187.709,269.086 187.5,268.5C 188.723,267.386 190.056,267.219 191.5,268C 192.423,270.041 192.756,272.208 192.5,274.5C 190.278,274.822 188.444,274.155 187,272.5C 183.102,275.645 180.602,274.812 179.5,270C 179.519,268.167 180.185,266.667 181.5,265.5 Z"/></g>
<g><path style="opacity:0.561" fill="#13a851" d="M 202.5,267.5 C 204.766,267.141 206.599,267.808 208,269.5C 209.466,267.675 211.299,267.175 213.5,268C 215.084,270.825 214.418,272.992 211.5,274.5C 209.326,272.219 207.326,272.219 205.5,274.5C 203.898,273.45 203.065,274.117 203,276.5C 202.502,273.518 202.335,270.518 202.5,267.5 Z M 210.5,269.5 C 212.465,269.948 212.798,270.948 211.5,272.5C 210.614,271.675 210.281,270.675 210.5,269.5 Z M 204.5,269.5 C 206.465,269.948 206.798,270.948 205.5,272.5C 203.481,271.867 203.147,270.867 204.5,269.5 Z"/></g>
<g><path style="opacity:0.592" fill="#13a851" d="M 225.5,267.5 C 228.187,267.336 230.854,267.503 233.5,268C 234.591,270.064 234.758,272.231 234,274.5C 232.732,274.384 231.398,274.051 230,273.5C 229.342,271.892 229.842,270.725 231.5,270C 230.207,269.51 228.873,269.343 227.5,269.5C 227.785,271.288 227.452,272.955 226.5,274.5C 225.526,272.257 225.192,269.924 225.5,267.5 Z"/></g>
</svg>
