<?xml version="1.0" encoding="UTF-8"?>
<!DOCTYPE svg PUBLIC "-//W3C//DTD SVG 1.1//EN" "http://www.w3.org/Graphics/SVG/1.1/DTD/svg11.dtd">
<svg xmlns="http://www.w3.org/2000/svg" version="1.1" width="339px" height="141px" style="shape-rendering:geometricPrecision; text-rendering:geometricPrecision; image-rendering:optimizeQuality; fill-rule:evenodd; clip-rule:evenodd" xmlns:xlink="http://www.w3.org/1999/xlink">
<g><path style="opacity:0.981" fill="#13a851" d="M -0.5,-0.5 C 8.83333,-0.5 18.1667,-0.5 27.5,-0.5C 42.1683,4.64787 46.0016,14.3145 39,28.5C 36.9205,30.1233 34.7538,31.6233 32.5,33C 25.5888,34.3844 18.5888,34.8844 11.5,34.5C 11.5,40.1667 11.5,45.8333 11.5,51.5C 7.5,51.5 3.5,51.5 -0.5,51.5C -0.5,34.1667 -0.5,16.8333 -0.5,-0.5 Z M 11.5,9.5 C 15.8461,9.33432 20.1794,9.50098 24.5,10C 29.6894,12.9132 30.8561,17.0799 28,22.5C 22.8267,25.0376 17.3267,26.0376 11.5,25.5C 11.5,20.1667 11.5,14.8333 11.5,9.5 Z"/></g>
<g><path style="opacity:0.978" fill="#14a851" d="M 45.5,-0.5 C 55.5,-0.5 65.5,-0.5 75.5,-0.5C 89.03,3.56184 93.1967,12.2285 88,25.5C 85.2282,29.6013 81.3949,32.1013 76.5,33C 81.7382,38.8153 86.7382,44.8153 91.5,51C 86.467,51.8289 81.467,51.6623 76.5,50.5C 71.9761,45.1436 67.6428,39.6436 63.5,34C 61.8659,33.5065 60.1992,33.3398 58.5,33.5C 58.5,39.5 58.5,45.5 58.5,51.5C 54.1667,51.5 49.8333,51.5 45.5,51.5C 45.5,34.1667 45.5,16.8333 45.5,-0.5 Z M 58.5,9.5 C 63.1785,9.33418 67.8452,9.50085 72.5,10C 78.3525,13.4512 79.0192,17.7845 74.5,23C 69.2636,24.339 63.9302,24.839 58.5,24.5C 58.5,19.5 58.5,14.5 58.5,9.5 Z"/></g>
<g><path style="opacity:0.982" fill="#13a851" d="M 94.5,-0.5 C 98.5,-0.5 102.5,-0.5 106.5,-0.5C 106.5,16.8333 106.5,34.1667 106.5,51.5C 102.5,51.5 98.5,51.5 94.5,51.5C 94.5,34.1667 94.5,16.8333 94.5,-0.5 Z"/></g>
<g><path style="opacity:0.968" fill="#13a951" d="M 112.5,-0.5 C 118.5,-0.5 124.5,-0.5 130.5,-0.5C 134.246,11.4081 138.58,23.0748 143.5,34.5C 148.119,22.93 152.453,11.2633 156.5,-0.5C 162.5,-0.5 168.5,-0.5 174.5,-0.5C 174.5,16.8333 174.5,34.1667 174.5,51.5C 170.167,51.5 165.833,51.5 161.5,51.5C 161.667,40.495 161.5,29.495 161,18.5C 157,29.1667 153,39.8333 149,50.5C 145.27,51.4601 141.437,51.7935 137.5,51.5C 134.171,40.3473 130.338,29.3473 126,18.5C 125.5,29.495 125.333,40.495 125.5,51.5C 121.167,51.5 116.833,51.5 112.5,51.5C 112.5,34.1667 112.5,16.8333 112.5,-0.5 Z"/></g>
<g><path style="opacity:0.968" fill="#13a952" d="M 180.5,-0.5 C 193.167,-0.5 205.833,-0.5 218.5,-0.5C 218.5,3.16667 218.5,6.83333 218.5,10.5C 209.833,10.5 201.167,10.5 192.5,10.5C 192.5,13.8333 192.5,17.1667 192.5,20.5C 200.5,20.5 208.5,20.5 216.5,20.5C 216.5,23.5 216.5,26.5 216.5,29.5C 208.5,29.5 200.5,29.5 192.5,29.5C 192.5,33.5 192.5,37.5 192.5,41.5C 201.5,41.5 210.5,41.5 219.5,41.5C 219.5,44.8333 219.5,48.1667 219.5,51.5C 206.5,51.5 193.5,51.5 180.5,51.5C 180.5,34.1667 180.5,16.8333 180.5,-0.5 Z"/></g>
<g><path style="opacity:0.951" fill="#14a852" d="M 222.5,-0.5 C 226.833,-0.5 231.167,-0.5 235.5,-0.5C 235.5,16.8333 235.5,34.1667 235.5,51.5C 231.167,51.5 226.833,51.5 222.5,51.5C 222.5,34.1667 222.5,16.8333 222.5,-0.5 Z"/></g>
<g><path style="opacity:0.962" fill="#13a851" d="M 241.5,-0.5 C 251.5,-0.5 261.5,-0.5 271.5,-0.5C 285.036,3.57291 289.202,12.2396 284,25.5C 281.252,29.5668 277.419,32.0668 272.5,33C 277.377,38.3726 282.044,43.8726 286.5,49.5C 289.919,50.2239 293.919,50.8905 298.5,51.5C 290.16,51.6664 281.827,51.4997 273.5,51C 268.456,45.6244 263.789,39.9578 259.5,34C 257.866,33.5065 256.199,33.3398 254.5,33.5C 254.5,39.5 254.5,45.5 254.5,51.5C 250.167,51.5 245.833,51.5 241.5,51.5C 241.5,34.1667 241.5,16.8333 241.5,-0.5 Z M 254.5,9.5 C 259.179,9.33418 263.845,9.50085 268.5,10C 274.29,13.5319 274.957,17.8652 270.5,23C 265.264,24.339 259.93,24.839 254.5,24.5C 254.5,19.5 254.5,14.5 254.5,9.5 Z"/></g>
<g><path style="opacity:0.979" fill="#13a851" d="M 303.5,-0.5 C 309.5,-0.5 315.5,-0.5 321.5,-0.5C 326.796,16.3897 332.463,33.0564 338.5,49.5C 338.5,50.1667 338.5,50.8333 338.5,51.5C 334.116,51.8256 329.783,51.4922 325.5,50.5C 324.593,47.9433 323.593,45.4433 322.5,43C 315.833,42.3333 309.167,42.3333 302.5,43C 301.438,46.0469 300.105,48.8802 298.5,51.5C 293.919,50.8905 289.919,50.2239 286.5,49.5C 292.537,33.0564 298.204,16.3897 303.5,-0.5 Z M 311.5,12.5 C 312.497,12.4701 313.164,12.9701 313.5,14C 315.401,19.8707 317.401,25.704 319.5,31.5C 314.833,32.8333 310.167,32.8333 305.5,31.5C 307.908,25.2761 309.908,18.9428 311.5,12.5 Z"/></g>
<g><path style="opacity:0.925" fill="#13a851" d="M 94.5,64.5 C 101.906,64.152 109.239,64.652 116.5,66C 118.893,68.2514 119.893,71.0847 119.5,74.5C 119.167,76.1667 118.833,77.8333 118.5,79.5C 112.892,66.6962 103.892,63.5296 91.5,70C 84.9727,80.5055 83.8061,91.6721 88,103.5C 93.5513,113.718 101.551,116.384 112,111.5C 112.829,106.467 112.662,101.467 111.5,96.5C 109.775,95.9851 108.108,95.3184 106.5,94.5C 112.5,93.1667 118.5,93.1667 124.5,94.5C 123.264,95.3567 121.931,96.0234 120.5,96.5C 119.421,100.644 119.421,104.81 120.5,109C 120.561,111.806 119.228,113.473 116.5,114C 106.19,117.79 96.1902,117.123 86.5,112C 77.3461,102.923 74.5128,92.0898 78,79.5C 81.1981,71.7946 86.6981,66.7946 94.5,64.5 Z"/></g>
<g><path style="opacity:0.917" fill="#14a852" d="M 52.5,66.5 C 58.6529,65.3467 64.9863,65.18 71.5,66C 69.7505,67.3186 67.7505,67.8186 65.5,67.5C 65.1673,82.5148 65.5007,97.5148 66.5,112.5C 68.2251,113.015 69.8917,113.682 71.5,114.5C 65.1667,115.833 58.8333,115.833 52.5,114.5C 54.1083,113.682 55.7749,113.015 57.5,112.5C 58.4993,97.5148 58.8327,82.5148 58.5,67.5C 56.4352,67.4828 54.4352,67.1495 52.5,66.5 Z"/></g>
<g><path style="opacity:0.952" fill="#14a851" d="M 128.5,66.5 C 137.324,65.3427 146.324,65.176 155.5,66C 163.762,68.7607 166.262,74.2607 163,82.5C 160.811,86.0221 157.978,88.8554 154.5,91C 158.091,100.188 163.424,108.188 170.5,115C 162.401,116.528 156.568,113.361 153,105.5C 150.893,101.619 149.059,97.6194 147.5,93.5C 145.604,92.5344 143.604,92.2011 141.5,92.5C 141.17,99.1998 141.503,105.866 142.5,112.5C 144.535,113.041 146.535,113.708 148.5,114.5C 141.833,115.833 135.167,115.833 128.5,114.5C 130.108,113.682 131.775,113.015 133.5,112.5C 134.499,97.5148 134.833,82.5148 134.5,67.5C 132.435,67.4828 130.435,67.1495 128.5,66.5 Z M 141.5,67.5 C 154.367,66.5327 158.867,72.1993 155,84.5C 151.469,88.6232 146.969,90.2899 141.5,89.5C 141.5,82.1667 141.5,74.8333 141.5,67.5 Z"/></g>
<g><path style="opacity:0.907" fill="#13a852" d="M 173.5,66.5 C 184.988,65.5051 196.655,65.1717 208.5,65.5C 208.826,69.8839 208.492,74.2172 207.5,78.5C 205.681,75.5427 204.347,72.376 203.5,69C 197.899,67.7832 192.232,67.2832 186.5,67.5C 186.5,74.1667 186.5,80.8333 186.5,87.5C 190.5,87.5 194.5,87.5 198.5,87.5C 198.643,84.9026 199.477,82.5692 201,80.5C 201.83,86.1959 201.663,91.8625 200.5,97.5C 199.365,95.2933 198.699,92.9599 198.5,90.5C 194.5,90.5 190.5,90.5 186.5,90.5C 186.5,98.1667 186.5,105.833 186.5,113.5C 192.562,113.055 198.562,112.222 204.5,111C 205.757,107.476 207.09,103.976 208.5,100.5C 209.494,105.456 209.827,110.456 209.5,115.5C 197.482,115.832 185.482,115.499 173.5,114.5C 175.108,113.682 176.775,113.015 178.5,112.5C 179.499,97.5148 179.833,82.5148 179.5,67.5C 177.379,67.6747 175.379,67.3414 173.5,66.5 Z"/></g>
<g><path style="opacity:0.982" fill="#13a851" d="M 215.5,66.5 C 221.987,65.346 228.654,65.1794 235.5,66C 233.655,67.128 231.655,67.628 229.5,67.5C 229.667,82.837 229.5,98.1703 229,113.5C 227.161,120.671 222.828,125.671 216,128.5C 217.314,124.858 218.981,121.191 221,117.5C 222.391,100.872 222.891,84.205 222.5,67.5C 220.097,67.552 217.764,67.2186 215.5,66.5 Z"/></g>
<g><path style="opacity:0.889" fill="#13a851" d="M 257.5,64.5 C 259.467,64.2606 261.301,64.5939 263,65.5C 268.639,80.6126 274.139,95.7793 279.5,111C 281.1,112.748 283.1,113.915 285.5,114.5C 277.5,115.833 269.5,115.833 261.5,114.5C 264.972,113.865 268.305,112.865 271.5,111.5C 269.637,107.245 267.97,102.912 266.5,98.5C 260.537,97.5041 254.537,97.1707 248.5,97.5C 247.135,102.427 245.469,107.26 243.5,112C 246.864,112.727 250.197,113.56 253.5,114.5C 247.167,115.833 240.833,115.833 234.5,114.5C 238.264,114.04 240.764,112.04 242,108.5C 247.075,93.7721 252.242,79.1054 257.5,64.5 Z M 256.5,74.5 C 257.497,74.4701 258.164,74.9701 258.5,76C 260.611,82.1651 262.611,88.3318 264.5,94.5C 259.833,94.5 255.167,94.5 250.5,94.5C 252.5,87.8333 254.5,81.1667 256.5,74.5 Z"/></g>
<g><path style="opacity:0.731" fill="#14a751" d="M 293.5,86.5 C 304.187,86.168 314.854,86.5013 325.5,87.5C 320.167,87.8333 314.833,88.1667 309.5,88.5C 303.789,88.4949 298.456,87.8282 293.5,86.5 Z"/></g>
<g><path style="opacity:0.433" fill="#13a752" d="M 4.5,88.5 C 15.1874,88.168 25.8541,88.5013 36.5,89.5C 31.1667,89.8333 25.8333,90.1667 20.5,90.5C 14.7891,90.4949 9.45576,89.8282 4.5,88.5 Z"/></g>
<g><path style="opacity:0.435" fill="#14a851" d="M 219.5,128.5 C 221.665,128.116 223.332,128.783 224.5,130.5C 222.997,131.052 221.331,131.052 219.5,130.5C 219.116,132.665 219.783,134.332 221.5,135.5C 222.506,135.062 222.506,134.396 221.5,133.5C 222.325,132.614 223.325,132.281 224.5,132.5C 224.833,136.323 223.166,137.823 219.5,137C 216.899,134.17 216.899,131.337 219.5,128.5 Z"/></g>
<g><path style="opacity:0.732" fill="#13a851" d="M 168.5,128.5 C 169.477,131.287 169.81,134.287 169.5,137.5C 166.429,138.075 164.429,136.909 163.5,134C 164.776,131.721 166.443,129.888 168.5,128.5 Z M 165.5,132.5 C 168.293,132.74 168.793,133.74 167,135.5C 165.961,134.756 165.461,133.756 165.5,132.5 Z"/></g>
<g><path style="opacity:0.749" fill="#13a852" d="M 149.5,130.5 C 154.213,130.468 155.713,132.801 154,137.5C 152.883,136.051 152.216,134.384 152,132.5C 150.883,133.949 150.216,135.616 150,137.5C 149.503,135.19 149.337,132.857 149.5,130.5 Z"/></g>
<g><path style="opacity:0.529" fill="#13a851" d="M 171.5,130.5 C 175.677,129.842 177.177,131.508 176,135.5C 173.442,138.15 171.608,137.65 170.5,134C 170.648,132.744 170.982,131.577 171.5,130.5 Z"/></g>
<g><path style="opacity:0.498" fill="#13a851" d="M 130.5,132.5 C 129.167,133.5 129.167,134.5 130.5,135.5C 130.483,137.028 129.816,137.528 128.5,137C 127.773,135.601 127.273,134.101 127,132.5C 126.798,134.256 126.298,135.922 125.5,137.5C 124.808,136.975 124.308,136.308 124,135.5C 122.54,137.422 120.873,138.089 119,137.5C 118.179,134.446 118.345,131.446 119.5,128.5C 121.149,129.706 122.649,131.039 124,132.5C 124.219,131.062 124.719,129.729 125.5,128.5C 126.192,129.025 126.692,129.692 127,130.5C 129.149,129.16 130.316,129.827 130.5,132.5 Z M 120.5,132.5 C 122.465,132.948 122.798,133.948 121.5,135.5C 120.614,134.675 120.281,133.675 120.5,132.5 Z"/></g>
<g><path style="opacity:0.358" fill="#14a751" d="M 130.5,135.5 C 130.5,134.5 130.5,133.5 130.5,132.5C 134.307,132.319 137.974,130.986 141.5,128.5C 142.655,131.446 142.821,134.446 142,137.5C 141.02,135.941 140.187,134.274 139.5,132.5C 138.702,134.078 138.202,135.744 138,137.5C 136.75,136.427 135.416,136.427 134,137.5C 132.697,137.022 131.531,136.355 130.5,135.5 Z"/></g>
<g><path style="opacity:0.582" fill="#13a851" d="M 143.5,130.5 C 148.213,130.468 149.713,132.801 148,137.5C 146.732,137.384 145.398,137.051 144,136.5C 143.342,134.892 143.842,133.725 145.5,133C 144.244,132.583 143.577,131.75 143.5,130.5 Z"/></g>
<g><path style="opacity:0.582" fill="#13a851" d="M 155.5,130.5 C 160.213,130.468 161.713,132.801 160,137.5C 158.732,137.384 157.398,137.051 156,136.5C 155.342,134.892 155.842,133.725 157.5,133C 156.244,132.583 155.577,131.75 155.5,130.5 Z"/></g>
<g><path style="opacity:0.562" fill="#13a851" d="M 225.5,130.5 C 228.187,130.336 230.854,130.503 233.5,131C 234.591,133.064 234.758,135.231 234,137.5C 232.732,137.384 231.398,137.051 230,136.5C 229.342,134.892 229.842,133.725 231.5,133C 230.207,132.51 228.873,132.343 227.5,132.5C 227.785,134.288 227.452,135.955 226.5,137.5C 225.526,135.257 225.192,132.924 225.5,130.5 Z"/></g>
<g><path style="opacity:0.729" fill="#13a851" d="M 245.5,128.5 C 246.931,128.881 247.764,129.881 248,131.5C 253.256,129.906 254.756,131.739 252.5,137C 250.633,137.711 249.133,137.211 248,135.5C 242.934,138.894 240.934,137.56 242,131.5C 243.729,131.026 244.895,130.026 245.5,128.5 Z M 243.5,132.5 C 245.973,132.947 246.14,133.947 244,135.5C 242.272,134.648 242.105,133.648 243.5,132.5 Z"/></g>
<g><path style="opacity:0.28" fill="#13a851" d="M 96.5,128.5 C 100.225,128.729 103.725,129.729 107,131.5C 110.508,131.341 114.008,131.341 117.5,131.5C 116.975,132.192 116.308,132.692 115.5,133C 118.132,134.778 117.965,136.278 115,137.5C 112.514,137.261 110.014,136.927 107.5,136.5C 105.73,131.326 104.563,131.659 104,137.5C 102.956,136.377 102.29,135.044 102,133.5C 100.989,134.337 99.8221,134.67 98.5,134.5C 98.719,135.675 98.3857,136.675 97.5,137.5C 96.5159,134.572 96.1826,131.572 96.5,128.5 Z M 98.5,130.5 C 100.337,130.639 100.67,131.306 99.5,132.5C 98.7025,132.043 98.3691,131.376 98.5,130.5 Z"/></g>
<g><path style="opacity:0.498" fill="#14a751" d="M 193.5,130.5 C 200.342,128.743 202.675,131.076 200.5,137.5C 199.702,135.922 199.202,134.256 199,132.5C 198.115,139.078 196.948,139.078 195.5,132.5C 194.702,134.078 194.202,135.744 194,137.5C 193.503,135.19 193.337,132.857 193.5,130.5 Z"/></g>
<g><path style="opacity:0.393" fill="#14a851" d="M 235.5,130.5 C 240.213,130.468 241.713,132.801 240,137.5C 238.883,136.051 238.216,134.384 238,132.5C 237.784,134.384 237.117,136.051 236,137.5C 235.503,135.19 235.337,132.857 235.5,130.5 Z"/></g>
<g><path style="opacity:0.686" fill="#13a851" d="M 181.5,128.5 C 183.665,128.116 185.332,128.783 186.5,130.5C 184.997,131.052 183.331,131.052 181.5,130.5C 181.038,135.244 182.538,136.244 186,133.5C 186.914,134.654 187.747,134.487 188.5,133C 188.043,132.586 187.709,132.086 187.5,131.5C 188.723,130.386 190.056,130.219 191.5,131C 192.423,133.041 192.756,135.208 192.5,137.5C 190.278,137.822 188.444,137.155 187,135.5C 183.102,138.645 180.602,137.812 179.5,133C 179.519,131.167 180.185,129.667 181.5,128.5 Z"/></g>
<g><path style="opacity:0.561" fill="#13a851" d="M 202.5,130.5 C 204.766,130.141 206.599,130.808 208,132.5C 209.466,130.675 211.299,130.175 213.5,131C 215.084,133.825 214.418,135.992 211.5,137.5C 209.326,135.219 207.326,135.219 205.5,137.5C 203.898,136.45 203.065,137.117 203,139.5C 202.502,136.518 202.335,133.518 202.5,130.5 Z M 210.5,132.5 C 212.465,132.948 212.798,133.948 211.5,135.5C 210.614,134.675 210.281,133.675 210.5,132.5 Z M 204.5,132.5 C 206.465,132.948 206.798,133.948 205.5,135.5C 203.481,134.867 203.147,133.867 204.5,132.5 Z"/></g>
</svg>
