<?xml version="1.0" encoding="UTF-8"?>
<!DOCTYPE svg PUBLIC "-//W3C//DTD SVG 1.1//EN" "http://www.w3.org/Graphics/SVG/1.1/DTD/svg11.dtd">
<svg xmlns="http://www.w3.org/2000/svg" version="1.1" width="376px" height="108px" style="shape-rendering:geometricPrecision; text-rendering:geometricPrecision; image-rendering:optimizeQuality; fill-rule:evenodd; clip-rule:evenodd" xmlns:xlink="http://www.w3.org/1999/xlink">
<g><path style="opacity:0.967" fill="#008958" d="M 109.5,2.5 C 118.173,2.33358 126.84,2.50025 135.5,3C 138.937,4.10491 141.437,6.27158 143,9.5C 143.667,14.1667 143.667,18.8333 143,23.5C 141.116,26.3845 138.616,28.5512 135.5,30C 130.511,30.4993 125.511,30.6659 120.5,30.5C 120.5,34.8333 120.5,39.1667 120.5,43.5C 116.833,43.5 113.167,43.5 109.5,43.5C 109.5,29.8333 109.5,16.1667 109.5,2.5 Z M 120.5,10.5 C 126.368,9.09878 130.702,10.9321 133.5,16C 132.87,17.892 131.87,19.5587 130.5,21C 127.183,21.4983 123.85,21.665 120.5,21.5C 120.5,17.8333 120.5,14.1667 120.5,10.5 Z"/></g>
<g><path style="opacity:0.914" fill="#008958" d="M 145.5,2.5 C 154.839,2.33355 164.173,2.50021 173.5,3C 181.932,8.35783 183.765,15.5245 179,24.5C 177.048,26.8936 174.548,28.3936 171.5,29C 175.356,33.3549 179.023,37.8549 182.5,42.5C 178.205,43.6609 173.871,43.8275 169.5,43C 166.862,38.8947 163.862,35.0614 160.5,31.5C 159.311,30.5713 157.978,30.238 156.5,30.5C 156.5,34.8333 156.5,39.1667 156.5,43.5C 152.833,43.5 149.167,43.5 145.5,43.5C 145.5,29.8333 145.5,16.1667 145.5,2.5 Z M 156.5,10.5 C 159.85,10.335 163.183,10.5017 166.5,11C 171.359,13.9531 171.693,17.2864 167.5,21C 163.848,21.4986 160.182,21.6653 156.5,21.5C 156.5,17.8333 156.5,14.1667 156.5,10.5 Z"/></g>
<g><path style="opacity:0.918" fill="#008958" d="M 183.5,2.5 C 187.167,2.5 190.833,2.5 194.5,2.5C 194.5,16.1667 194.5,29.8333 194.5,43.5C 190.833,43.5 187.167,43.5 183.5,43.5C 183.5,29.8333 183.5,16.1667 183.5,2.5 Z"/></g>
<g><path style="opacity:0.943" fill="#008958" d="M 198.5,2.5 C 203.43,2.19749 208.263,2.53082 213,3.5C 215.868,11.6576 219.034,19.6576 222.5,27.5C 225.966,19.6576 229.132,11.6576 232,3.5C 236.737,2.53082 241.57,2.19749 246.5,2.5C 246.5,16.1667 246.5,29.8333 246.5,43.5C 243.167,43.5 239.833,43.5 236.5,43.5C 236.666,35.4931 236.5,27.4931 236,19.5C 232.861,27.4343 230.027,35.4343 227.5,43.5C 223.894,43.7892 220.394,43.4558 217,42.5C 214.619,34.737 211.952,27.0703 209,19.5C 208.5,27.4931 208.334,35.4931 208.5,43.5C 205.167,43.5 201.833,43.5 198.5,43.5C 198.5,29.8333 198.5,16.1667 198.5,2.5 Z"/></g>
<g><path style="opacity:0.916" fill="#008958" d="M 250.5,2.5 C 260.833,2.5 271.167,2.5 281.5,2.5C 281.5,5.16667 281.5,7.83333 281.5,10.5C 274.833,10.5 268.167,10.5 261.5,10.5C 261.5,13.1667 261.5,15.8333 261.5,18.5C 267.5,18.5 273.5,18.5 279.5,18.5C 279.5,21.5 279.5,24.5 279.5,27.5C 273.5,27.5 267.5,27.5 261.5,27.5C 261.5,29.8333 261.5,32.1667 261.5,34.5C 268.167,34.5 274.833,34.5 281.5,34.5C 281.5,37.5 281.5,40.5 281.5,43.5C 271.167,43.5 260.833,43.5 250.5,43.5C 250.5,29.8333 250.5,16.1667 250.5,2.5 Z"/></g>
<g><path style="opacity:0.957" fill="#008958" d="M 283.5,2.5 C 287.167,2.5 290.833,2.5 294.5,2.5C 294.5,16.1667 294.5,29.8333 294.5,43.5C 290.833,43.5 287.167,43.5 283.5,43.5C 283.5,29.8333 283.5,16.1667 283.5,2.5 Z"/></g>
<g><path style="opacity:0.951" fill="#008958" d="M 375.5,41.5 C 375.5,42.1667 375.5,42.8333 375.5,43.5C 371.5,43.5 367.5,43.5 363.5,43.5C 363.007,41.1944 362.674,38.861 362.5,36.5C 357.489,36.3341 352.489,36.5007 347.5,37C 345.984,38.897 345.317,41.0637 345.5,43.5C 337.826,43.6664 330.159,43.4997 322.5,43C 319.743,38.8211 316.743,34.8211 313.5,31C 312.207,30.51 310.873,30.3433 309.5,30.5C 309.5,34.8333 309.5,39.1667 309.5,43.5C 305.833,43.5 302.167,43.5 298.5,43.5C 298.5,29.8333 298.5,16.1667 298.5,2.5C 307.839,2.33355 317.173,2.50021 326.5,3C 333.638,6.81545 336.138,12.6488 334,20.5C 332.402,25.0986 329.235,27.9319 324.5,29C 327.667,32.8333 330.833,36.6667 334,40.5C 338.176,28.1526 342.343,15.8192 346.5,3.5C 351.833,2.16667 357.167,2.16667 362.5,3.5C 366.342,16.4524 370.676,29.1191 375.5,41.5 Z M 309.5,10.5 C 312.85,10.335 316.183,10.5017 319.5,11C 324.359,13.9531 324.693,17.2864 320.5,21C 316.848,21.4986 313.182,21.6653 309.5,21.5C 309.5,17.8333 309.5,14.1667 309.5,10.5 Z M 354.5,13.5 C 356.226,18.2013 357.893,23.0347 359.5,28C 356.167,28.6667 352.833,28.6667 349.5,28C 351.466,23.2672 353.133,18.4339 354.5,13.5 Z"/></g>
<g><path style="opacity:0.956" fill="#008958" d="M 74.5,30.5 C 73.2946,31.6857 71.9613,31.6857 70.5,30.5C 71.0065,29.1411 72.0065,28.1411 73.5,27.5C 72.5,26.1667 71.5,24.8333 70.5,23.5C 79.1176,19.0729 85.2843,21.4062 89,30.5C 91.9374,49.9024 84.104,56.7357 65.5,51C 60.4135,48.0397 55.2469,45.2064 50,42.5C 46.2295,43.2242 44.5628,45.5575 45,49.5C 44.6894,61.2194 45.356,72.886 47,84.5C 52.5111,86.3423 57.3444,89.3423 61.5,93.5C 47.8446,96.0056 34.1779,96.0056 20.5,93.5C 24.2909,88.0245 29.4576,85.0245 36,84.5C 37.2618,73.4935 38.4285,62.4935 39.5,51.5C 38.5178,48.9044 37.8511,46.2377 37.5,43.5C 33.5343,44.6147 30.5343,47.1147 28.5,51C 24.5984,53.4412 21.5984,52.6078 19.5,48.5C 16.5762,50.809 13.2429,52.1423 9.5,52.5C 2.45888,50.2228 0.792214,45.7228 4.5,39C 6.61465,36.7714 8.94799,34.7714 11.5,33C 10.4829,31.9505 10.3162,30.7839 11,29.5C 12.7183,28.1498 14.5516,26.9832 16.5,26C 12.9733,24.127 11.3066,21.127 11.5,17C 13.4566,4.65209 20.4566,0.652091 32.5,5C 36.0693,8.065 39.0693,11.565 41.5,15.5C 50.6915,8.52039 54.8582,10.8537 54,22.5C 69.6957,12.6601 73.0291,15.6601 64,31.5C 62.6671,42.4984 67.5005,46.9984 78.5,45C 84.137,40.339 84.9703,34.839 81,28.5C 77.5768,25.3479 75.4101,26.0145 74.5,30.5 Z"/></g>
<g><path style="opacity:1" fill="#a26600" d="M 70.5,30.5 C 71.9613,31.6857 73.2946,31.6857 74.5,30.5C 81.8911,31.3947 83.2244,34.728 78.5,40.5C 70.4818,43.4266 66.9818,40.7599 68,32.5C 68.7083,31.6195 69.5416,30.9528 70.5,30.5 Z"/></g>
<g><path style="opacity:0.871" fill="#008958" d="M 107.5,53.5 C 112.875,53.1718 118.208,53.5052 123.5,54.5C 122.15,55.9501 120.484,56.6168 118.5,56.5C 118.168,67.8529 118.501,79.1862 119.5,90.5C 120.931,90.9766 122.264,91.6433 123.5,92.5C 118.167,93.8333 112.833,93.8333 107.5,92.5C 108.736,91.6433 110.069,90.9766 111.5,90.5C 112.499,79.1862 112.832,67.8529 112.5,56.5C 109.966,56.7409 108.3,55.7409 107.5,53.5 Z"/></g>
<g><path style="opacity:0.854" fill="#018958" d="M 166.5,53.5 C 173.175,53.3337 179.842,53.5004 186.5,54C 194.7,54.8725 197.534,59.3725 195,67.5C 193.918,70.6478 191.751,72.8145 188.5,74C 191.446,81.1202 195.446,87.6202 200.5,93.5C 197,94.6238 193.667,94.1238 190.5,92C 187.333,86.9829 184.333,81.8163 181.5,76.5C 180.675,75.6143 179.675,75.281 178.5,75.5C 178.173,80.544 178.506,85.544 179.5,90.5C 180.931,90.9766 182.264,91.6433 183.5,92.5C 177.833,93.8333 172.167,93.8333 166.5,92.5C 167.736,91.6433 169.069,90.9766 170.5,90.5C 171.499,79.1862 171.832,67.8529 171.5,56.5C 168.966,56.7409 167.3,55.7409 166.5,53.5 Z M 178.5,56.5 C 188.175,56.6717 190.842,61.1717 186.5,70C 184.231,72.0229 181.564,72.8563 178.5,72.5C 178.5,67.1667 178.5,61.8333 178.5,56.5 Z"/></g>
<g><path style="opacity:0.852" fill="#008958" d="M 201.5,53.5 C 211.167,53.5 220.833,53.5 230.5,53.5C 230.665,57.1817 230.499,60.8484 230,64.5C 229.586,64.9574 229.086,65.2907 228.5,65.5C 227.451,62.9205 226.784,60.2538 226.5,57.5C 222.202,56.8005 217.869,56.4672 213.5,56.5C 213.334,61.5111 213.501,66.5111 214,71.5C 216.405,70.7256 218.905,70.2256 221.5,70C 222.38,68.6439 222.714,67.1439 222.5,65.5C 223.5,65.5 224.5,65.5 225.5,65.5C 225.5,70.1667 225.5,74.8333 225.5,79.5C 224.5,79.5 223.5,79.5 222.5,79.5C 222.714,77.8561 222.38,76.3561 221.5,75C 218.986,73.7475 216.32,73.2475 213.5,73.5C 213.5,79.1667 213.5,84.8333 213.5,90.5C 217.936,90.7899 222.27,90.2899 226.5,89C 227.554,86.6178 228.221,84.1178 228.5,81.5C 229.5,81.5 230.5,81.5 231.5,81.5C 231.167,85.5 230.833,89.5 230.5,93.5C 220.81,93.8318 211.144,93.4984 201.5,92.5C 202.736,91.6433 204.069,90.9766 205.5,90.5C 206.833,79.1667 206.833,67.8333 205.5,56.5C 203.517,56.1852 202.184,55.1852 201.5,53.5 Z"/></g>
<g><path style="opacity:0.857" fill="#008958" d="M 234.5,53.5 C 240.206,53.1712 245.872,53.5046 251.5,54.5C 250.15,55.9501 248.484,56.6168 246.5,56.5C 246.667,68.5046 246.5,80.5046 246,92.5C 244.913,99.4443 241.079,102.778 234.5,102.5C 236.802,99.4304 238.635,96.097 240,92.5C 240.5,80.5046 240.667,68.5046 240.5,56.5C 237.784,56.6138 235.784,55.6138 234.5,53.5 Z"/></g>
<g><path style="opacity:0.861" fill="#008958" d="M 267.5,53.5 C 269.5,53.5 271.5,53.5 273.5,53.5C 277.171,65.6808 281.338,77.6808 286,89.5C 287.586,90.376 289.086,91.376 290.5,92.5C 283.833,93.8333 277.167,93.8333 270.5,92.5C 273.273,91.7475 275.94,90.7475 278.5,89.5C 276.773,86.7127 275.606,83.7127 275,80.5C 270.599,79.5333 266.099,79.2 261.5,79.5C 260.793,83.2476 259.793,86.9143 258.5,90.5C 260.96,90.6985 263.293,91.3652 265.5,92.5C 260.5,93.8333 255.5,93.8333 250.5,92.5C 251.914,91.376 253.414,90.376 255,89.5C 258.895,77.3827 263.062,65.3827 267.5,53.5 Z M 267.5,62.5 C 269.639,66.6209 271.639,70.9542 273.5,75.5C 270.232,76.487 266.898,76.8204 263.5,76.5C 265.402,72.0196 266.736,67.353 267.5,62.5 Z"/></g>
<g><path style="opacity:0.897" fill="#008958" d="M 142.5,52.5 C 148.622,52.2683 154.622,52.9349 160.5,54.5C 160.724,58.1788 161.058,61.8455 161.5,65.5C 160.5,65.5 159.5,65.5 158.5,65.5C 156.11,58.3011 151.11,55.1344 143.5,56C 138.356,58.1211 135.522,61.9544 135,67.5C 132.751,77.3792 135.584,85.2125 143.5,91C 153.569,93.2624 157.069,89.4291 154,79.5C 152.155,78.9505 150.655,77.9505 149.5,76.5C 154.5,75.1667 159.5,75.1667 164.5,76.5C 164.167,77.5 163.5,78.1667 162.5,78.5C 161.808,83.048 161.141,87.548 160.5,92C 134.494,98.7584 123.66,88.9251 128,62.5C 131.635,57.2782 136.468,53.9449 142.5,52.5 Z"/></g>
<g><path style="opacity:0.427" fill="#008a58" d="M 315.5,61.5 C 316.756,61.9038 317.923,62.5705 319,63.5C 323.826,63.4523 328.659,63.1189 333.5,62.5C 335.059,63.0736 336.559,63.7402 338,64.5C 340.737,63.3895 343.571,63.2228 346.5,64C 347.38,65.3561 347.714,66.8561 347.5,68.5C 331.497,68.6666 315.497,68.4999 299.5,68C 300.833,66.3333 300.833,64.6667 299.5,63C 303.162,62.7185 306.829,62.8852 310.5,63.5C 312.64,63.4439 314.306,62.7773 315.5,61.5 Z M 304.5,65.5 C 305.043,65.56 305.376,65.8933 305.5,66.5C 304.635,67.5827 303.635,67.7494 302.5,67C 303.416,66.7216 304.082,66.2216 304.5,65.5 Z"/></g>
<g><path style="opacity:0.512" fill="#038e57" d="M 350.5,61.5 C 352.798,62.3103 355.132,63.1436 357.5,64C 358.833,65.3333 358.833,66.6667 357.5,68C 354.518,68.498 351.518,68.6646 348.5,68.5C 348.468,65.9242 349.135,63.5909 350.5,61.5 Z"/></g>
<g><path style="opacity:0.565" fill="#008958" d="M 291.5,65.5 C 292.638,68.3035 292.805,71.3035 292,74.5C 291.502,71.5184 291.335,68.5184 291.5,65.5 Z"/></g>
<g><path style="opacity:0.514" fill="#018959" d="M 301.5,72.5 C 309.481,73.157 317.481,73.657 325.5,74C 326.406,75.6995 326.739,77.5328 326.5,79.5C 323.639,79.3416 320.972,80.0083 318.5,81.5C 312.981,79.8638 307.315,79.0305 301.5,79C 300.232,76.8368 300.232,74.6702 301.5,72.5 Z"/></g>
<g><path style="opacity:0.548" fill="#008958" d="M 348.5,71.5 C 349.931,71.8807 350.764,72.8807 351,74.5C 352.356,73.6198 353.856,73.2865 355.5,73.5C 355.5,75.5 355.5,77.5 355.5,79.5C 346.249,79.8178 337.083,79.4845 328,78.5C 327.257,76.5594 327.424,74.7261 328.5,73C 332.651,72.8568 336.818,73.0234 341,73.5C 343.167,73.3333 345.333,73.1667 347.5,73C 348.056,72.6174 348.389,72.1174 348.5,71.5 Z M 330.5,73.5 C 332.337,73.6395 332.67,74.3061 331.5,75.5C 330.702,75.0431 330.369,74.3764 330.5,73.5 Z"/></g>
</svg>
