<?xml version="1.0" encoding="UTF-8"?>
<!DOCTYPE svg PUBLIC "-//W3C//DTD SVG 1.1//EN" "http://www.w3.org/Graphics/SVG/1.1/DTD/svg11.dtd">
<svg xmlns="http://www.w3.org/2000/svg" version="1.1" width="118px" height="123px" style="shape-rendering:geometricPrecision; text-rendering:geometricPrecision; image-rendering:optimizeQuality; fill-rule:evenodd; clip-rule:evenodd" xmlns:xlink="http://www.w3.org/1999/xlink">
<g><path style="opacity:0.985" fill="#13a851" d="M 22.5,-0.5 C 26.5,-0.5 30.5,-0.5 34.5,-0.5C 42.0196,3.01377 48.0196,8.3471 52.5,15.5C 54.9928,13.4197 57.6595,11.5864 60.5,10C 66.2144,9.21378 68.8811,11.7138 68.5,17.5C 68.6144,20.3775 67.9477,23.0442 66.5,25.5C 66.8333,25.8333 67.1667,26.1667 67.5,26.5C 72.5,23.6667 77.5,20.8333 82.5,18C 88.6667,16.1667 90.8333,18.3333 89,24.5C 81.2552,33.0205 79.9219,42.3539 85,52.5C 91.7721,58.4919 98.9388,58.9919 106.5,54C 111.555,47.0111 111.722,39.8444 107,32.5C 104.592,29.3799 101.426,28.0466 97.5,28.5C 97.5,31.1667 97.5,33.8333 97.5,36.5C 95.7085,36.634 94.0418,36.3007 92.5,35.5C 93.1834,33.8235 94.5168,33.1568 96.5,33.5C 96.7852,31.712 96.4519,30.0453 95.5,28.5C 92.2643,27.3778 91.9309,25.8778 94.5,24C 102.514,21.4651 109.014,23.6317 114,30.5C 115.478,33.1579 116.645,35.8245 117.5,38.5C 117.5,42.8333 117.5,47.1667 117.5,51.5C 111.992,65.2412 102.325,69.0745 88.5,63C 81.1667,59.3333 73.8333,55.6667 66.5,52C 63.0437,50.877 60.2103,51.7104 58,54.5C 56.0943,58.9548 55.261,63.6214 55.5,68.5C 56.0828,83.2467 57.4162,97.9134 59.5,112.5C 57.2133,112.724 55.0466,113.391 53,114.5C 49.5846,113.728 47.0846,111.895 45.5,109C 48.1127,92.2563 49.2793,75.4229 49,58.5C 48.4427,56.3853 47.6094,54.3853 46.5,52.5C 45.277,51.3861 43.9437,51.2195 42.5,52C 39.8333,55.3333 37.1667,58.6667 34.5,62C 31.8225,64.4463 28.8225,64.9463 25.5,63.5C 24.8257,61.4835 23.6591,59.8168 22,58.5C 16.9921,63.0937 11.1587,64.9271 4.5,64C 3.58377,63.6258 2.75044,63.1258 2,62.5C 1.15532,60.3885 0.321983,58.3885 -0.5,56.5C -0.5,55.1667 -0.5,53.8333 -0.5,52.5C 0.321983,50.6115 1.15532,48.6115 2,46.5C 5,44.5 8,42.5 11,40.5C 9.60261,34.3896 12.1026,31.3896 18.5,31.5C 17.736,28.213 15.9027,25.5463 13,23.5C 9.81106,12.8905 12.9777,4.89047 22.5,-0.5 Z"/></g>
<g><path style="opacity:0.958" fill="#f00" d="M 92.5,35.5 C 94.0418,36.3007 95.7085,36.634 97.5,36.5C 104.503,35.6727 107.003,38.6727 105,45.5C 100.016,50.4592 94.6824,50.7925 89,46.5C 86.7255,41.7199 87.8922,38.0532 92.5,35.5 Z"/></g>
<g><path style="opacity:0.945" fill="#14a951" d="M 79.5,122.5 C 60.8333,122.5 42.1667,122.5 23.5,122.5C 29.4908,113.224 37.8241,110.391 48.5,114C 51.3932,117.089 54.3932,117.089 57.5,114C 66.7178,112.114 74.0511,114.947 79.5,122.5 Z"/></g>
</svg>
